<svg width="395" height="191" viewBox="0 0 395 191" fill="none" xmlns="http://www.w3.org/2000/svg">
<path d="M83.2081 136.066C71.5232 136.066 65.4438 139.807 60.0805 143.107C55.2463 146.082 51.4275 148.432 42.9627 148.432C34.5528 148.432 30.7339 146.082 25.8998 143.107C22.5893 141.069 18.8376 138.761 13.5853 137.369C10.4963 136.548 7.32859 138.39 6.50927 141.478C5.68996 144.567 7.52995 147.735 10.619 148.554C14.2234 149.51 16.8233 151.11 19.8344 152.963C25.1977 156.263 31.2771 160.004 43.0168 160.004C54.7017 160.004 60.781 156.263 66.1444 152.963C70.9785 149.988 74.7973 147.638 83.2065 147.638C91.6165 147.638 95.4346 149.988 100.269 152.963C105.633 156.263 111.712 160.004 123.397 160.004C128.743 160.004 133.421 159.21 137.696 157.577C140.681 156.437 142.177 153.092 141.036 150.107C139.895 147.121 136.552 145.626 133.566 146.766C130.593 147.903 127.361 148.431 123.396 148.431C114.986 148.431 111.167 146.081 106.333 143.106C100.972 139.807 94.893 136.066 83.2081 136.066Z" fill="url(#paint0_linear_487_478)"/>
<path d="M386.558 140.235C384.752 141.168 383.15 142.154 381.6 143.108C376.766 146.083 372.947 148.432 364.482 148.432C356.072 148.432 352.254 146.083 347.419 143.108C342.056 139.807 335.977 136.066 324.292 136.066C312.607 136.066 306.528 139.807 301.164 143.108C296.33 146.083 292.511 148.432 284.102 148.432C275.692 148.432 271.874 146.083 267.039 143.108C261.676 139.807 255.597 136.066 243.912 136.066C232.227 136.066 226.148 139.807 220.784 143.108C215.95 146.083 212.131 148.432 203.722 148.432C166 148.432 135.234 117.706 135.234 79.9842C135.234 42.2618 165.923 11.573 203.645 11.573C226.611 11.573 247.924 23.0072 260.658 42.16C262.427 44.8208 266.019 45.5445 268.68 43.7747C271.341 42.0049 272.065 38.4137 270.295 35.7528C255.411 13.3652 230.495 0 203.645 0C159.542 0 123.662 35.8801 123.662 79.9835C123.662 124.086 159.661 160.004 203.765 160.004C203.779 160.003 203.792 160.004 203.806 160.004C215.437 159.986 221.5 156.255 226.851 152.963C231.685 149.988 235.503 147.638 243.913 147.638C252.323 147.638 256.142 149.988 260.976 152.963C266.34 156.263 272.419 160.004 284.104 160.004C295.789 160.004 301.868 156.263 307.231 152.963C312.065 149.988 315.884 147.638 324.294 147.638C332.704 147.638 336.522 149.988 341.357 152.963C346.72 156.263 352.8 160.004 364.54 160.004C376.225 160.004 382.304 156.263 387.667 152.963C389.098 152.082 390.45 151.251 391.871 150.516C394.711 149.05 395.823 145.559 394.356 142.72C392.887 139.881 389.397 138.767 386.558 140.235Z" fill="url(#paint1_linear_487_478)"/>
<path d="M42.3175 129.048C42.5521 129.076 42.7866 129.089 43.018 129.089C54.703 129.089 60.7823 125.349 66.1456 122.048C70.9798 119.073 74.7986 116.723 83.2078 116.723C91.6178 116.723 95.4366 119.073 100.271 122.048C104.333 124.548 108.935 127.381 116.163 128.544C119.315 129.052 122.287 126.906 122.795 123.752C123.303 120.596 121.157 117.627 118.003 117.119C113.044 116.321 109.936 114.408 106.336 112.193C100.973 108.893 94.8935 105.152 83.2086 105.152C71.5237 105.152 65.4451 108.893 60.081 112.193C55.3533 115.102 51.5962 117.415 43.5141 117.514C43.3058 117.492 43.096 117.48 42.8853 117.48C25.6195 117.48 11.5731 103.433 11.5731 86.1678C11.5731 68.9028 25.6203 54.8556 42.8853 54.8556C53.3984 54.8556 63.1546 60.0908 68.9847 68.8596C70.7537 71.5212 74.3465 72.2448 77.0059 70.4751C79.6675 68.706 80.3904 65.114 78.6213 62.4531C70.6419 50.4496 57.2828 43.2833 42.8853 43.2833C19.2385 43.2825 0 62.5203 0 86.1671C0 109.624 18.9307 128.744 42.3175 129.048Z" fill="url(#paint2_linear_487_478)"/>
<path d="M247.401 92.3874C247.401 97.0093 248.268 101.431 249.835 105.508C248.03 105.28 246.068 105.151 243.912 105.151C232.227 105.151 226.148 108.892 220.785 112.192C215.95 115.167 212.132 117.517 203.722 117.517C183.047 117.517 166.149 100.658 166.149 79.9842C166.149 59.3093 182.97 42.4887 203.644 42.4887C216.915 42.4887 228.931 49.2839 235.788 60.6663C237.437 63.4028 240.993 64.2861 243.73 62.6367C246.467 60.9873 247.349 57.4315 245.7 54.695C236.73 39.8054 221.008 30.9164 203.644 30.9164C176.589 30.9164 154.577 52.9283 154.577 79.9842C154.577 107.04 176.708 129.089 203.764 129.089H203.806C215.437 129.071 221.499 125.34 226.85 122.048C231.684 119.073 235.503 116.723 243.913 116.723C252.323 116.723 256.142 119.073 260.976 122.048C266.339 125.348 272.418 129.089 284.103 129.089C295.788 129.089 301.867 125.348 307.231 122.048C312.065 119.073 315.884 116.723 324.294 116.723C332.704 116.723 336.522 119.073 341.356 122.048C346.72 125.348 352.799 129.089 364.54 129.089C376.224 129.089 382.303 125.348 387.666 122.049C389.097 121.168 390.45 120.336 391.871 119.601C394.71 118.135 395.822 114.645 394.356 111.806C392.889 108.967 389.399 107.853 386.559 109.321C384.754 110.253 383.152 111.239 381.602 112.193C376.768 115.168 372.949 117.518 364.484 117.518C356.074 117.518 352.255 115.168 347.421 112.193C342.058 108.892 335.978 105.152 324.294 105.152C312.609 105.152 306.529 108.892 301.166 112.193C296.332 115.168 292.513 117.518 284.104 117.518C270.248 117.518 258.974 106.245 258.974 92.3881C258.974 78.5315 270.247 67.2586 284.104 67.2586C292.083 67.2586 299.411 70.9232 304.21 77.3126C306.13 79.867 309.756 80.3823 312.312 78.4637C314.867 76.5442 315.381 72.9175 313.463 70.3623C306.456 61.0359 295.755 55.6872 284.103 55.6872C263.865 55.6856 247.401 72.1498 247.401 92.3874Z" fill="url(#paint3_linear_487_478)"/>
<path d="M386.566 171.08C384.734 172.023 383.112 173.02 381.544 173.986C376.71 176.96 372.892 179.31 364.427 179.31C356.017 179.31 352.199 176.96 347.364 173.986C342.001 170.685 335.921 166.944 324.236 166.944C312.552 166.944 306.472 170.685 301.109 173.986C296.275 176.96 292.456 179.31 284.047 179.31C275.637 179.31 271.819 176.96 266.984 173.986C261.621 170.685 255.541 166.944 243.856 166.944C232.172 166.944 226.092 170.685 220.729 173.986C215.9 176.957 212.084 179.305 203.694 179.31C195.303 179.305 191.487 176.957 186.659 173.986C181.295 170.685 175.216 166.944 163.531 166.944C151.846 166.944 145.767 170.685 140.404 173.986C135.57 176.96 131.751 179.31 123.341 179.31C114.931 179.31 111.112 176.96 106.278 173.986C100.915 170.685 94.8352 166.944 83.1504 166.944C71.4655 166.944 65.3862 170.685 60.0229 173.986C55.1887 176.96 51.3699 179.31 42.9052 179.31C34.4953 179.31 30.6764 176.96 25.8423 173.986C22.5319 171.949 18.7802 169.64 13.5287 168.247C10.442 167.43 7.27272 169.268 6.45263 172.357C5.63332 175.445 7.4733 178.614 10.5623 179.433C14.1667 180.389 16.7666 181.989 19.7777 183.841C25.141 187.142 31.2203 190.883 42.9607 190.883C54.6456 190.883 60.7249 187.142 66.0883 183.841C70.9224 180.866 74.7412 178.517 83.1504 178.517C91.5603 178.517 95.3791 180.866 100.213 183.841C105.577 187.142 111.656 190.883 123.341 190.883C135.026 190.883 141.105 187.142 146.468 183.841C151.302 180.866 155.121 178.517 163.53 178.517C171.94 178.517 175.758 180.866 180.593 183.841C185.944 187.135 192.008 190.866 203.641 190.883H203.694C203.694 190.883 203.729 190.883 203.747 190.883C215.379 190.866 221.443 187.134 226.794 183.841C231.628 180.866 235.446 178.517 243.856 178.517C252.266 178.517 256.084 180.866 260.919 183.841C266.283 187.142 272.362 190.883 284.047 190.883C295.732 190.883 301.811 187.142 307.174 183.841C312.009 180.866 315.827 178.517 324.237 178.517C332.647 178.517 336.466 180.866 341.3 183.841C346.663 187.142 352.743 190.883 364.483 190.883C376.168 190.883 382.247 187.142 387.611 183.841C389.057 182.951 390.423 182.11 391.862 181.37C394.704 179.908 395.822 176.42 394.36 173.578C392.896 170.736 389.408 169.617 386.566 171.08Z" fill="url(#paint4_linear_487_478)"/>
<defs>
<linearGradient id="paint0_linear_487_478" x1="6.31445" y1="148.035" x2="141.419" y2="148.035" gradientUnits="userSpaceOnUse">
<stop stop-color="#0D7FF2"/>
<stop offset="0.475962" stop-color="#B4E4FF"/>
<stop offset="1" stop-color="#1F9DD8"/>
</linearGradient>
<linearGradient id="paint1_linear_487_478" x1="123.662" y1="80.002" x2="395.003" y2="80.002" gradientUnits="userSpaceOnUse">
<stop stop-color="#0D7FF2"/>
<stop offset="0.475962" stop-color="#B4E4FF"/>
<stop offset="1" stop-color="#1F9DD8"/>
</linearGradient>
<linearGradient id="paint2_linear_487_478" x1="0" y1="86.1864" x2="122.869" y2="86.1864" gradientUnits="userSpaceOnUse">
<stop stop-color="#0D7FF2"/>
<stop offset="0.475962" stop-color="#B4E4FF"/>
<stop offset="1" stop-color="#1F9DD8"/>
</linearGradient>
<linearGradient id="paint3_linear_487_478" x1="154.577" y1="80.0028" x2="395.002" y2="80.0028" gradientUnits="userSpaceOnUse">
<stop stop-color="#0D7FF2"/>
<stop offset="0.475962" stop-color="#B4E4FF"/>
<stop offset="1" stop-color="#1F9DD8"/>
</linearGradient>
<linearGradient id="paint4_linear_487_478" x1="6.25781" y1="178.913" x2="395.002" y2="178.913" gradientUnits="userSpaceOnUse">
<stop stop-color="#0D7FF2"/>
<stop offset="0.475962" stop-color="#B4E4FF"/>
<stop offset="1" stop-color="#1F9DD8"/>
</linearGradient>
</defs>
</svg>
